PathFileType	4	(X/Y/Z)	5_2_8_p0_0-338.trc
DataRate	CameraRate	NumFrames	NumMarkers	Units	OrigDataRate	OrigDataStartFrame	OrigNumFrames
60.0	60.0	7	27	m	60.0	0	339
Frame#	Time	RHip			RKnee			RAnkle			RBigToe			RSmallToe			RHeel			LHip			LKnee			LAnkle			LBigToe			LSmallToe			LHeel			Neck			Head			Nose			RShoulder			RElbow			RWrist			RThumb			RIndex			RPinky			LShoulder			LElbow			LWrist			LThumb			LIndex			LPinky			
		X1	Y1	Z1	X2	Y2	Z2	X3	Y3	Z3	X4	Y4	Z4	X5	Y5	Z5	X6	Y6	Z6	X7	Y7	Z7	X8	Y8	Z8	X9	Y9	Z9	X10	Y10	Z10	X11	Y11	Z11	X12	Y12	Z12	X13	Y13	Z13	X14	Y14	Z14	X15	Y15	Z15	X16	Y16	Z16	X17	Y17	Z17	X18	Y18	Z18	X19	Y19	Z19	X20	Y20	Z20	X21	Y21	Z21	X22	Y22	Z22	X23	Y23	Z23	X24	Y24	Z24	X25	Y25	Z25	X26	Y26	Z26	X27	Y27	Z27	
0	0.0	0.3944239461989892	0.5301006162769804	0.8029727744094994	0.4076732889483483	0.6439350161042257	1.2495834605240126	0.43621774854366885	0.7355788821827384	1.6511173917418998	0.3879574952538847	0.5772867062190299	1.662963532097156	0.44673832015244974	0.5772288998885933	1.6556537854451159	0.4243352332122294	0.7846687254902609	1.7039688452933248	0.20978779732576489	0.4890939361454046	0.8255355690683902	0.2296758232038574	0.6509702967924216	1.286854437146648	0.23701204306833892	0.8032242530998729	1.6974094287556896	0.21470621600143508	0.5668546629323923	1.6858058527672082	0.17149392761570537	0.6311176192280741	1.6809502523337065	0.25449713988522826	0.8353192522932902	1.7385685529413808	0.24030980243296796	0.4589039137479103	0.30496584432724216	0.2315400514334692	0.3691028258721469	0.06136581158235133	0.26613924426520336	0.3368782301580801	0.19866493436282542	0.41534867330855696	0.5041450348718491	0.36838882308849485	0.45215212695606255	0.5267152861521134	0.6369621731970087	0.37790232135590107	0.3573631324845271	0.7979137586274994	0.3185992141882392	0.3480517357501464	0.8951472350523261	0.3157904833259854	0.3785675370494169	0.9196898041188228	0.32377251445348665	0.40670405398659487	0.9095013876914887	0.11714629644490426	0.44199357049644594	0.39294191596330214	0.12302594909600978	0.47074436707003886	0.6543279839432843	0.2730649577210806	0.3446529770205361	0.8116880366187267	0.3424449765282379	0.3749647832545128	0.8823517062957613	0.34589100509779364	0.35359490793966164	0.9002588760715037	0.3095739882313699	0.3812557238408503	0.9105607776835439
1	0.016666666666666666	0.39447381674634235	0.5298880776072327	0.803097130566261	0.4071156737113367	0.6448956150406875	1.2545346316506185	0.43732742576374084	0.738378601387775	1.6564589778131706	0.3879767454950905	0.577147541097755	1.6629762874737535	0.45070355813011204	0.5895829860295295	1.667933468241296	0.42714723805268145	0.7992006133942128	1.7093945547869658	0.20404718597814764	0.5027467752028348	0.8283564374337468	0.2288909761509489	0.6526107770496508	1.2915284338637107	0.23611743629993984	0.8048912588054429	1.7023406052431813	0.21596908359287	0.5511501948050037	1.6833233614491436	0.17236962533619762	0.6336717901573644	1.685957626209567	0.25635273973858247	0.8489545217909344	1.7435881655709997	0.23651247134211684	0.4575749403052646	0.3053692258379127	0.23159659921390308	0.36891148791261025	0.06168399649508512	0.2637980467496391	0.3244592536829564	0.1962739899262267	0.4200395077461626	0.49188764397447843	0.37125467129783746	0.4563799466488594	0.5278984954811935	0.6365872873382655	0.38020997033030773	0.3686962183489391	0.7993122934506555	0.31892821875114485	0.3480531272688993	0.8952704276369449	0.32331979859257043	0.38014708383306867	0.9157223690469131	0.32689136854547984	0.40907302374553905	0.9125668714773053	0.11712598367037338	0.4419451098791475	0.39291605472719227	0.12284425162423972	0.4709833059268826	0.654088137970711	0.2694488403085792	0.3432584962220592	0.8118840109469401	0.33881097539149785	0.37510679007310826	0.8828688836893	0.3452018658791282	0.355187922392022	0.8966856234637185	0.3040269261899375	0.36704578076539573	0.908590133974215
2	0.03333333333333333	0.39207019312574687	0.5172711880958251	0.8017739311693755	0.4077660682253653	0.6436329773630229	1.2498786635276653	0.43733570917469183	0.7384072374842301	1.6562631274814597	0.38803978069889744	0.5774100899202441	1.662825635531346	0.45153848322435974	0.5883135529261962	1.6628130940576145	0.42430167685874215	0.784451907844372	1.7039072724549853	0.2139997773746059	0.49173631512711385	0.8254182123427338	0.22965714752097768	0.6510574173509678	1.2870341730352568	0.23607310878940999	0.8049329809638248	1.7023638414739553	0.21795959757014594	0.5654156194041071	1.688778159229665	0.17240601572368588	0.633822645774198	1.6860182737191416	0.2561742191364164	0.8486561074694999	1.743535703550275	0.23655888371687311	0.45743314958929543	0.3053496879325415	0.23561916921958667	0.37135242820996195	0.061146923908705575	0.2660335753269956	0.3351702650001083	0.1984454122438948	0.42015230498354095	0.49103885172602596	0.36798679963714187	0.4563860970951966	0.5279678638006987	0.6366842712037313	0.3774182404770623	0.35804175136237254	0.7945795605921866	0.3098543816656391	0.3590732967686944	0.8980923554918141	0.3147356507670173	0.37725089439938275	0.912062985838607	0.32642317955098676	0.41003669431350626	0.9158288185211513	0.1171378680061792	0.4418395834597293	0.39299149373542525	0.12273836325421608	0.47064904826117326	0.6543919987085223	0.2735863568583702	0.3439377093291119	0.8079566518396694	0.33301597665263033	0.38788654199283845	0.8861598132097158	0.339876725062711	0.3674596735820847	0.8995562085799645	0.3047599934922196	0.3661413129046264	0.9046211884537757
3	0.05	0.3946016130936391	0.5297302421818687	0.80323851517537	0.40772197924578546	0.6436313358961345	1.2497416774167798	0.437374451854317	0.7385734795283778	1.6563729001124208	0.3880652512561552	0.5773826396363518	1.6629349737152217	0.4539286203662339	0.600108123722151	1.6674647181294435	0.42719102484412047	0.7993017404782021	1.7093487525843793	0.21023907184747298	0.4876687142791684	0.8217911881965889	0.22897668929813828	0.652442594415993	1.2913476468881646	0.23608563422255746	0.804943721574949	1.7023174316520038	0.21605220213405282	0.5510534405876333	1.6832310340737362	0.17240328667428206	0.633598226198937	1.6859227119035693	0.2561421594031245	0.8488411673803382	1.7435704918814077	0.23655905688231302	0.45730283548600054	0.3053381950521857	0.23567511747311565	0.3711018211840313	0.061016757826136005	0.2660999206990505	0.3355827155738731	0.2017476574190737	0.4201266452712969	0.4910889722481028	0.36800397575729205	0.45637705319413047	0.5280636491281442	0.6366967174863382	0.3801852662999605	0.3686539724992965	0.7992355914224011	0.3125529545874285	0.3352281383335072	0.8910978915249885	0.31127049086717357	0.3759288969393166	0.9121289920723191	0.32258654411759363	0.40931440763616767	0.9129264087643902	0.11713598159790248	0.44186839005457473	0.3930413316797837	0.12275435729106024	0.4707163667849275	0.6543164228544801	0.2735739374627224	0.3440191708144185	0.8079423286665315	0.33802871382891153	0.37535596100679797	0.8835527321804356	0.3352453885839278	0.3780783485296905	0.8993378114631173	0.3066565106143835	0.37945311285135785	0.9031627770622671
4	0.06666666666666667	0.3945574931802948	0.5297307106293451	0.8030560916457715	0.40774569590962	0.6436187970506834	1.2497823428416504	0.43740710806474775	0.738387070244717	1.6564359348457856	0.387974133831696	0.5771515253505062	1.662976085756588	0.4506907537187921	0.5892257286714675	1.6677733126294378	0.4272831484215424	0.7991626979966943	1.7094076030002545	0.20717270929189904	0.4918240380423722	0.8226195879489925	0.22961722667761997	0.6508429636536992	1.2869957240600964	0.23612652652576235	0.8048685168773788	1.7023473488138274	0.21601539462285368	0.5511910858923431	1.683274527490147	0.1723773473646135	0.6336413041238825	1.6858036104082814	0.2563646310603166	0.8491146610585841	1.7434775256556876	0.23661064872904758	0.4573685874191965	0.3053275781589546	0.23564944362736792	0.37131785686807744	0.06114296787212745	0.2660518461630502	0.3351625447013719	0.19841402956052606	0.41968018048179495	0.48912021270868455	0.3642969940425247	0.45638407981831	0.5280466599441916	0.6368248029754767	0.377865824622577	0.3572070124123772	0.7980767869095192	0.30619472741513104	0.34828142076852164	0.8971003718164424	0.310514490654063	0.37745916547263353	0.9161993749220553	0.3221933025274163	0.40999599580480733	0.9163822280964399	0.12097198884898909	0.44446276058196543	0.3926810944662242	0.1227838593409332	0.47064500882653687	0.654488476405435	0.2735579240250789	0.344067583674815	0.807966508096973	0.3326992267878836	0.38820967517753013	0.8863557885038995	0.32953666411465804	0.39158577585820625	0.9052173607005701	0.30645503724233114	0.3794416333958945	0.9031617554443567
5	0.08333333333333333	0.3951885109882845	0.5318876998437337	0.8073663718765973	0.4072145461955569	0.6447320704892401	1.2547220826797676	0.4374770327262958	0.7384607609733178	1.6565201494057158	0.3880162628979638	0.5769262986517232	1.6629331991074403	0.4507203041561506	0.588683264614916	1.6675230663049332	0.42730916123062873	0.7993217152372322	1.7094230893722235	0.21247196506667365	0.4789374627483478	0.8239217743534183	0.23518464207942646	0.6369453094241755	1.2863057434313276	0.23608487681245585	0.8049702355104106	1.7023806209378736	0.21616034611480256	0.550876584632724	1.683250656329505	0.17247497822815624	0.6334478778585888	1.685785108873013	0.2562321861643445	0.8492082510751869	1.7436546056520785	0.23658768161218446	0.45739658068322747	0.3053541435056347	0.24099421037039148	0.3588049961963861	0.062236586933378614	0.2660637836651298	0.33504483128076534	0.1984995115468836	0.41998547749289156	0.49198905786129987	0.37126934502270575	0.45609303974871007	0.5290948517387083	0.640303733142887	0.37782475470928256	0.35710484710224677	0.7979561722153019	0.3093133024954525	0.3599336240921231	0.8954565065967938	0.3110584232539318	0.37653955571151027	0.9123297767520581	0.3220723537803057	0.4097520888493854	0.9163237807285612	0.11933339260823113	0.43092910923587846	0.38929409669118525	0.12277003441147065	0.47059011391244854	0.6545042783966407	0.2735483460024589	0.3437794596404008	0.8078803325301436	0.33275466409757004	0.38842545535331097	0.8863715189485154	0.3370049678813938	0.39159918226209556	0.901207513858294	0.3065915958115486	0.37938123852029954	0.9031140390600867
6	0.1	0.39277727225470704	0.5192410284859796	0.8061576643810276	0.4072354173685623	0.6447467721079243	1.2546788276375935	0.4374649732855415	0.7384391135584562	1.656582670475996	0.38803142072938773	0.577051343651246	1.6630432905982575	0.45153137935122717	0.5874907599263023	1.6626837003397872	0.42727919868403486	0.7992270512330854	1.709398527054913	0.20832894389836168	0.4760839061349473	0.8240485114835772	0.22977679298518325	0.650519112045611	1.2870455123962656	0.23527359041693505	0.806560467513432	1.6987487329176194	0.21899492862959	0.5677078060606867	1.6941582569213656	0.17242820625800362	0.6336562286567258	1.68599716219513	0.25719761625333887	0.8518034659279842	1.7483702900637597	0.23664517320557066	0.4574485586622195	0.30536164506101265	0.2357883465155185	0.3711669045077168	0.06122370317660091	0.2664469526170193	0.3347443788664453	0.20178230399690594	0.4199605980936648	0.4920310050287551	0.3713503988894544	0.45196505159146005	0.5279888695599956	0.6406841468061918	0.3773317054302711	0.3579373929410161	0.794612315621682	0.30907289645610064	0.36075902144087946	0.8952936787637982	0.3104250763683011	0.37783028054554063	0.9092312833701032	0.3213791893486317	0.407103156588449	0.9117175116602607	0.11929769335244342	0.4310303920357615	0.3893033755020035	0.1227744902916569	0.4704110297879905	0.6546284677173307	0.27355470298711976	0.3436231922164019	0.8078196932337801	0.32735269822416435	0.40104943936433035	0.889188080748891	0.3271464443022275	0.40500318310028205	0.9074707248631588	0.3046361448359231	0.36710659330870976	0.9012290368235906
